<mxfile host="app.diagrams.net" modified="2023-12-10T13:37:47.321Z" agent="Mozilla/5.0 (Windows NT 10.0; Win64; x64) AppleWebKit/537.36 (KHTML, like Gecko) Chrome/119.0.0.0 Safari/537.36" etag="KUte3jn8RJO9PMtHPUxu" version="22.1.7" type="device">
  <diagram name="페이지-1" id="YPkrSVRQKo9ysVXnH5TX">
    <mxGraphModel dx="1131" dy="1571" grid="1" gridSize="10" guides="1" tooltips="1" connect="1" arrows="1" fold="1" page="1" pageScale="1" pageWidth="1390" pageHeight="980" math="0" shadow="0">
      <root>
        <mxCell id="0" />
        <mxCell id="1" parent="0" />
        <mxCell id="tLbLExzxjZkmGMl7VkWK-106" style="edgeStyle=orthogonalEdgeStyle;rounded=0;orthogonalLoop=1;jettySize=auto;html=1;exitX=1;exitY=0.5;exitDx=0;exitDy=0;entryX=0;entryY=0.5;entryDx=0;entryDy=0;fontFamily=Helvetica;fontSize=12;fontColor=default;" edge="1" parent="1" source="tLbLExzxjZkmGMl7VkWK-94" target="tLbLExzxjZkmGMl7VkWK-97">
          <mxGeometry relative="1" as="geometry" />
        </mxCell>
        <mxCell id="tLbLExzxjZkmGMl7VkWK-94" value="" style="rounded=0;whiteSpace=wrap;html=1;strokeColor=#666666;align=center;verticalAlign=middle;fontFamily=Helvetica;fontSize=12;fontColor=#333333;fillColor=#f5f5f5;dashed=1;" vertex="1" parent="1">
          <mxGeometry x="915" y="563.5" width="155" height="135" as="geometry" />
        </mxCell>
        <mxCell id="tLbLExzxjZkmGMl7VkWK-73" style="edgeStyle=orthogonalEdgeStyle;rounded=0;orthogonalLoop=1;jettySize=auto;html=1;entryX=1;entryY=0.5;entryDx=0;entryDy=0;" edge="1" parent="1" source="tLbLExzxjZkmGMl7VkWK-65" target="tLbLExzxjZkmGMl7VkWK-66">
          <mxGeometry relative="1" as="geometry">
            <Array as="points">
              <mxPoint x="640" y="780" />
            </Array>
          </mxGeometry>
        </mxCell>
        <mxCell id="tLbLExzxjZkmGMl7VkWK-65" value="" style="rounded=0;whiteSpace=wrap;html=1;fillColor=#f5f5f5;dashed=1;fontColor=#333333;strokeColor=#666666;" vertex="1" parent="1">
          <mxGeometry x="560" y="445" width="180" height="210" as="geometry" />
        </mxCell>
        <mxCell id="tLbLExzxjZkmGMl7VkWK-25" value="" style="rounded=0;whiteSpace=wrap;html=1;fillColor=none;dashed=1;" vertex="1" parent="1">
          <mxGeometry x="10" y="10" width="740" height="110" as="geometry" />
        </mxCell>
        <mxCell id="tLbLExzxjZkmGMl7VkWK-67" value="" style="edgeStyle=orthogonalEdgeStyle;rounded=0;orthogonalLoop=1;jettySize=auto;html=1;" edge="1" parent="1" source="tLbLExzxjZkmGMl7VkWK-38" target="tLbLExzxjZkmGMl7VkWK-66">
          <mxGeometry relative="1" as="geometry" />
        </mxCell>
        <mxCell id="tLbLExzxjZkmGMl7VkWK-38" value="" style="rounded=0;whiteSpace=wrap;html=1;fillColor=#f5f5f5;dashed=1;fontColor=#333333;strokeColor=#666666;" vertex="1" parent="1">
          <mxGeometry x="190" y="385" width="300" height="210" as="geometry" />
        </mxCell>
        <mxCell id="tLbLExzxjZkmGMl7VkWK-6" value="" style="rounded=0;whiteSpace=wrap;html=1;" vertex="1" parent="1">
          <mxGeometry x="170" y="40" width="120" height="60" as="geometry" />
        </mxCell>
        <mxCell id="tLbLExzxjZkmGMl7VkWK-8" value="페이지" style="text;strokeColor=none;fillColor=none;html=1;fontSize=16;fontStyle=1;verticalAlign=middle;align=center;" vertex="1" parent="1">
          <mxGeometry x="180" y="10" width="100" height="40" as="geometry" />
        </mxCell>
        <mxCell id="tLbLExzxjZkmGMl7VkWK-9" value="" style="rounded=0;whiteSpace=wrap;html=1;fillColor=#f8cecc;strokeColor=#b85450;" vertex="1" parent="1">
          <mxGeometry x="310" y="40" width="120" height="60" as="geometry" />
        </mxCell>
        <mxCell id="tLbLExzxjZkmGMl7VkWK-10" value="외부페이지" style="text;strokeColor=none;fillColor=none;html=1;fontSize=16;fontStyle=1;verticalAlign=middle;align=center;" vertex="1" parent="1">
          <mxGeometry x="320" y="10" width="100" height="40" as="geometry" />
        </mxCell>
        <mxCell id="tLbLExzxjZkmGMl7VkWK-11" value="" style="rounded=0;whiteSpace=wrap;html=1;fillColor=#f5f5f5;dashed=1;fontColor=#333333;strokeColor=#666666;" vertex="1" parent="1">
          <mxGeometry x="450" y="40" width="120" height="60" as="geometry" />
        </mxCell>
        <mxCell id="tLbLExzxjZkmGMl7VkWK-12" value="묶음" style="text;strokeColor=none;fillColor=none;html=1;fontSize=16;fontStyle=1;verticalAlign=middle;align=center;" vertex="1" parent="1">
          <mxGeometry x="460" y="10" width="100" height="40" as="geometry" />
        </mxCell>
        <mxCell id="tLbLExzxjZkmGMl7VkWK-13" value="" style="rounded=0;whiteSpace=wrap;html=1;fillColor=#dae8fc;strokeColor=#6c8ebf;" vertex="1" parent="1">
          <mxGeometry x="590" y="40" width="120" height="60" as="geometry" />
        </mxCell>
        <mxCell id="tLbLExzxjZkmGMl7VkWK-14" value="컴포넌트" style="text;strokeColor=none;fillColor=none;html=1;fontSize=16;fontStyle=1;verticalAlign=middle;align=center;" vertex="1" parent="1">
          <mxGeometry x="600" y="10" width="100" height="40" as="geometry" />
        </mxCell>
        <mxCell id="tLbLExzxjZkmGMl7VkWK-44" value="" style="edgeStyle=orthogonalEdgeStyle;rounded=0;orthogonalLoop=1;jettySize=auto;html=1;" edge="1" parent="1" source="tLbLExzxjZkmGMl7VkWK-15" target="tLbLExzxjZkmGMl7VkWK-26">
          <mxGeometry relative="1" as="geometry" />
        </mxCell>
        <mxCell id="tLbLExzxjZkmGMl7VkWK-15" value="" style="shape=waypoint;sketch=0;fillStyle=solid;size=6;pointerEvents=1;points=[];fillColor=none;resizable=0;rotatable=0;perimeter=centerPerimeter;snapToPoint=1;strokeWidth=8;" vertex="1" parent="1">
          <mxGeometry x="40" y="245" width="20" height="20" as="geometry" />
        </mxCell>
        <mxCell id="tLbLExzxjZkmGMl7VkWK-16" value="접속" style="text;strokeColor=none;fillColor=none;html=1;fontSize=16;fontStyle=1;verticalAlign=middle;align=center;" vertex="1" parent="1">
          <mxGeometry y="195" width="100" height="40" as="geometry" />
        </mxCell>
        <mxCell id="tLbLExzxjZkmGMl7VkWK-18" value="" style="endArrow=classic;html=1;rounded=0;" edge="1" parent="1">
          <mxGeometry width="50" height="50" relative="1" as="geometry">
            <mxPoint x="98" y="53" as="sourcePoint" />
            <mxPoint x="138" y="53" as="targetPoint" />
          </mxGeometry>
        </mxCell>
        <mxCell id="tLbLExzxjZkmGMl7VkWK-21" value="&amp;nbsp;다이렉트" style="text;strokeColor=none;fillColor=none;align=left;verticalAlign=middle;spacingLeft=4;spacingRight=4;overflow=hidden;points=[[0,0.5],[1,0.5]];portConstraint=eastwest;rotatable=0;whiteSpace=wrap;html=1;" vertex="1" parent="1">
          <mxGeometry x="30" y="40" width="80" height="30" as="geometry" />
        </mxCell>
        <mxCell id="tLbLExzxjZkmGMl7VkWK-22" value="" style="endArrow=classic;html=1;rounded=0;strokeColor=#B3B3B3;" edge="1" parent="1">
          <mxGeometry width="50" height="50" relative="1" as="geometry">
            <mxPoint x="98" y="83" as="sourcePoint" />
            <mxPoint x="138" y="83" as="targetPoint" />
          </mxGeometry>
        </mxCell>
        <mxCell id="tLbLExzxjZkmGMl7VkWK-23" value="포함관계" style="text;strokeColor=none;fillColor=none;align=left;verticalAlign=middle;spacingLeft=4;spacingRight=4;overflow=hidden;points=[[0,0.5],[1,0.5]];portConstraint=eastwest;rotatable=0;whiteSpace=wrap;html=1;" vertex="1" parent="1">
          <mxGeometry x="34" y="70" width="80" height="30" as="geometry" />
        </mxCell>
        <mxCell id="tLbLExzxjZkmGMl7VkWK-45" value="" style="edgeStyle=orthogonalEdgeStyle;rounded=0;orthogonalLoop=1;jettySize=auto;html=1;" edge="1" parent="1" source="tLbLExzxjZkmGMl7VkWK-26" target="tLbLExzxjZkmGMl7VkWK-27">
          <mxGeometry relative="1" as="geometry" />
        </mxCell>
        <mxCell id="tLbLExzxjZkmGMl7VkWK-26" value="시작화면" style="rounded=0;whiteSpace=wrap;html=1;" vertex="1" parent="1">
          <mxGeometry x="130" y="225" width="120" height="60" as="geometry" />
        </mxCell>
        <mxCell id="tLbLExzxjZkmGMl7VkWK-40" value="" style="edgeStyle=orthogonalEdgeStyle;rounded=0;orthogonalLoop=1;jettySize=auto;html=1;" edge="1" parent="1" source="tLbLExzxjZkmGMl7VkWK-27" target="tLbLExzxjZkmGMl7VkWK-38">
          <mxGeometry relative="1" as="geometry" />
        </mxCell>
        <mxCell id="tLbLExzxjZkmGMl7VkWK-48" value="" style="edgeStyle=orthogonalEdgeStyle;rounded=0;orthogonalLoop=1;jettySize=auto;html=1;" edge="1" parent="1" source="tLbLExzxjZkmGMl7VkWK-27" target="tLbLExzxjZkmGMl7VkWK-47">
          <mxGeometry relative="1" as="geometry" />
        </mxCell>
        <mxCell id="tLbLExzxjZkmGMl7VkWK-27" value="로그인" style="rounded=0;whiteSpace=wrap;html=1;" vertex="1" parent="1">
          <mxGeometry x="280" y="225" width="120" height="60" as="geometry" />
        </mxCell>
        <mxCell id="tLbLExzxjZkmGMl7VkWK-43" value="" style="edgeStyle=orthogonalEdgeStyle;rounded=0;orthogonalLoop=1;jettySize=auto;html=1;" edge="1" parent="1" source="tLbLExzxjZkmGMl7VkWK-28" target="tLbLExzxjZkmGMl7VkWK-33">
          <mxGeometry relative="1" as="geometry" />
        </mxCell>
        <mxCell id="tLbLExzxjZkmGMl7VkWK-28" value="&lt;p style=&quot;line-height: 80%;&quot;&gt;회원가입&lt;/p&gt;" style="rounded=0;whiteSpace=wrap;html=1;fillColor=#dae8fc;strokeColor=#6c8ebf;" vertex="1" parent="1">
          <mxGeometry x="210" y="410" width="120" height="60" as="geometry" />
        </mxCell>
        <mxCell id="tLbLExzxjZkmGMl7VkWK-41" value="" style="edgeStyle=orthogonalEdgeStyle;rounded=0;orthogonalLoop=1;jettySize=auto;html=1;" edge="1" parent="1" source="tLbLExzxjZkmGMl7VkWK-31" target="tLbLExzxjZkmGMl7VkWK-36">
          <mxGeometry relative="1" as="geometry" />
        </mxCell>
        <mxCell id="tLbLExzxjZkmGMl7VkWK-31" value="카카오로그인" style="rounded=0;whiteSpace=wrap;html=1;fillColor=#dae8fc;strokeColor=#6c8ebf;" vertex="1" parent="1">
          <mxGeometry x="344" y="410" width="120" height="60" as="geometry" />
        </mxCell>
        <mxCell id="tLbLExzxjZkmGMl7VkWK-42" value="" style="edgeStyle=orthogonalEdgeStyle;rounded=0;orthogonalLoop=1;jettySize=auto;html=1;" edge="1" parent="1" source="tLbLExzxjZkmGMl7VkWK-32" target="tLbLExzxjZkmGMl7VkWK-33">
          <mxGeometry relative="1" as="geometry" />
        </mxCell>
        <mxCell id="tLbLExzxjZkmGMl7VkWK-32" value="이용약관 및 개인정보 동의" style="rounded=0;whiteSpace=wrap;html=1;" vertex="1" parent="1">
          <mxGeometry x="210" y="485" width="120" height="40" as="geometry" />
        </mxCell>
        <mxCell id="tLbLExzxjZkmGMl7VkWK-33" value="회원가입입력창" style="rounded=0;whiteSpace=wrap;html=1;" vertex="1" parent="1">
          <mxGeometry x="210" y="545" width="120" height="30" as="geometry" />
        </mxCell>
        <mxCell id="tLbLExzxjZkmGMl7VkWK-36" value="카카오로그인 동의" style="rounded=0;whiteSpace=wrap;html=1;fillColor=#f8cecc;strokeColor=#b85450;" vertex="1" parent="1">
          <mxGeometry x="344" y="505" width="120" height="30" as="geometry" />
        </mxCell>
        <mxCell id="tLbLExzxjZkmGMl7VkWK-50" value="" style="edgeStyle=orthogonalEdgeStyle;rounded=0;orthogonalLoop=1;jettySize=auto;html=1;" edge="1" parent="1" source="tLbLExzxjZkmGMl7VkWK-47" target="tLbLExzxjZkmGMl7VkWK-49">
          <mxGeometry relative="1" as="geometry" />
        </mxCell>
        <mxCell id="tLbLExzxjZkmGMl7VkWK-76" value="" style="edgeStyle=orthogonalEdgeStyle;rounded=0;orthogonalLoop=1;jettySize=auto;html=1;" edge="1" parent="1" source="tLbLExzxjZkmGMl7VkWK-47" target="tLbLExzxjZkmGMl7VkWK-75">
          <mxGeometry relative="1" as="geometry" />
        </mxCell>
        <mxCell id="tLbLExzxjZkmGMl7VkWK-47" value="기본정보 입력" style="whiteSpace=wrap;html=1;rounded=0;" vertex="1" parent="1">
          <mxGeometry x="560" y="225" width="120" height="60" as="geometry" />
        </mxCell>
        <mxCell id="tLbLExzxjZkmGMl7VkWK-52" value="" style="edgeStyle=orthogonalEdgeStyle;rounded=0;orthogonalLoop=1;jettySize=auto;html=1;" edge="1" parent="1" source="tLbLExzxjZkmGMl7VkWK-49" target="tLbLExzxjZkmGMl7VkWK-51">
          <mxGeometry relative="1" as="geometry">
            <Array as="points">
              <mxPoint x="580" y="485" />
            </Array>
          </mxGeometry>
        </mxCell>
        <mxCell id="tLbLExzxjZkmGMl7VkWK-49" value="기본 정보" style="whiteSpace=wrap;html=1;rounded=0;fillColor=#dae8fc;strokeColor=#6c8ebf;" vertex="1" parent="1">
          <mxGeometry x="560" y="365" width="120" height="60" as="geometry" />
        </mxCell>
        <mxCell id="tLbLExzxjZkmGMl7VkWK-51" value="키 몸무게 나이 성별" style="whiteSpace=wrap;html=1;rounded=0;" vertex="1" parent="1">
          <mxGeometry x="600" y="470" width="120" height="30" as="geometry" />
        </mxCell>
        <mxCell id="tLbLExzxjZkmGMl7VkWK-55" value="활동량（하루）" style="whiteSpace=wrap;html=1;rounded=0;" vertex="1" parent="1">
          <mxGeometry x="600" y="514" width="120" height="30" as="geometry" />
        </mxCell>
        <mxCell id="tLbLExzxjZkmGMl7VkWK-56" value="활동량（１주）" style="whiteSpace=wrap;html=1;rounded=0;" vertex="1" parent="1">
          <mxGeometry x="600" y="555" width="120" height="30" as="geometry" />
        </mxCell>
        <mxCell id="tLbLExzxjZkmGMl7VkWK-57" value="당뇨병타입" style="whiteSpace=wrap;html=1;rounded=0;" vertex="1" parent="1">
          <mxGeometry x="600" y="595" width="120" height="30" as="geometry" />
        </mxCell>
        <mxCell id="tLbLExzxjZkmGMl7VkWK-59" value="" style="edgeStyle=segmentEdgeStyle;endArrow=classic;html=1;curved=0;rounded=0;endSize=8;startSize=8;entryX=0;entryY=0.5;entryDx=0;entryDy=0;" edge="1" parent="1" target="tLbLExzxjZkmGMl7VkWK-55">
          <mxGeometry width="50" height="50" relative="1" as="geometry">
            <mxPoint x="580" y="485" as="sourcePoint" />
            <mxPoint x="570" y="515" as="targetPoint" />
            <Array as="points">
              <mxPoint x="580" y="530" />
            </Array>
          </mxGeometry>
        </mxCell>
        <mxCell id="tLbLExzxjZkmGMl7VkWK-61" value="" style="edgeStyle=segmentEdgeStyle;endArrow=classic;html=1;curved=0;rounded=0;endSize=8;startSize=8;" edge="1" parent="1" target="tLbLExzxjZkmGMl7VkWK-56">
          <mxGeometry width="50" height="50" relative="1" as="geometry">
            <mxPoint x="580" y="529" as="sourcePoint" />
            <mxPoint x="600" y="574" as="targetPoint" />
            <Array as="points">
              <mxPoint x="580" y="565" />
            </Array>
          </mxGeometry>
        </mxCell>
        <mxCell id="tLbLExzxjZkmGMl7VkWK-62" value="" style="edgeStyle=segmentEdgeStyle;endArrow=classic;html=1;curved=0;rounded=0;endSize=8;startSize=8;entryX=0;entryY=0.5;entryDx=0;entryDy=0;" edge="1" parent="1">
          <mxGeometry width="50" height="50" relative="1" as="geometry">
            <mxPoint x="580" y="566" as="sourcePoint" />
            <mxPoint x="600" y="611" as="targetPoint" />
            <Array as="points">
              <mxPoint x="580" y="611" />
            </Array>
          </mxGeometry>
        </mxCell>
        <mxCell id="tLbLExzxjZkmGMl7VkWK-66" value="ＤＢ" style="whiteSpace=wrap;html=1;fillColor=#e1d5e7;strokeColor=#9673a6;rounded=0;" vertex="1" parent="1">
          <mxGeometry x="280" y="750" width="120" height="60" as="geometry" />
        </mxCell>
        <mxCell id="tLbLExzxjZkmGMl7VkWK-80" style="edgeStyle=orthogonalEdgeStyle;rounded=0;orthogonalLoop=1;jettySize=auto;html=1;entryX=0.25;entryY=0;entryDx=0;entryDy=0;fontFamily=Helvetica;fontSize=12;fontColor=default;" edge="1" parent="1" source="tLbLExzxjZkmGMl7VkWK-75" target="tLbLExzxjZkmGMl7VkWK-77">
          <mxGeometry relative="1" as="geometry" />
        </mxCell>
        <mxCell id="tLbLExzxjZkmGMl7VkWK-81" style="edgeStyle=orthogonalEdgeStyle;rounded=0;orthogonalLoop=1;jettySize=auto;html=1;entryX=0.5;entryY=0;entryDx=0;entryDy=0;fontFamily=Helvetica;fontSize=12;fontColor=default;exitX=0.5;exitY=1;exitDx=0;exitDy=0;" edge="1" parent="1" source="tLbLExzxjZkmGMl7VkWK-75" target="tLbLExzxjZkmGMl7VkWK-78">
          <mxGeometry relative="1" as="geometry" />
        </mxCell>
        <mxCell id="tLbLExzxjZkmGMl7VkWK-75" value="식단기록" style="whiteSpace=wrap;html=1;rounded=0;" vertex="1" parent="1">
          <mxGeometry x="760" y="225" width="120" height="60" as="geometry" />
        </mxCell>
        <mxCell id="tLbLExzxjZkmGMl7VkWK-82" style="edgeStyle=orthogonalEdgeStyle;rounded=0;orthogonalLoop=1;jettySize=auto;html=1;exitX=0.5;exitY=1;exitDx=0;exitDy=0;entryX=0.5;entryY=0;entryDx=0;entryDy=0;fontFamily=Helvetica;fontSize=12;fontColor=default;" edge="1" parent="1" source="tLbLExzxjZkmGMl7VkWK-77" target="tLbLExzxjZkmGMl7VkWK-79">
          <mxGeometry relative="1" as="geometry" />
        </mxCell>
        <mxCell id="tLbLExzxjZkmGMl7VkWK-77" value="&lt;&lt;botton&gt;&gt;&#xa;몸무게변화기록" style="rounded=0;imageAspect=1;connectable=1;expand=1;labelBackgroundColor=none;labelBorderColor=none;spacing=0;verticalAlign=middle;align=center;horizontal=1;fontFamily=Helvetica;fillColor=#dae8fc;strokeColor=#6c8ebf;" vertex="1" parent="1">
          <mxGeometry x="772" y="410" width="120" height="60" as="geometry" />
        </mxCell>
        <mxCell id="tLbLExzxjZkmGMl7VkWK-86" style="edgeStyle=orthogonalEdgeStyle;rounded=0;orthogonalLoop=1;jettySize=auto;html=1;exitX=0.5;exitY=1;exitDx=0;exitDy=0;entryX=0.5;entryY=0;entryDx=0;entryDy=0;fontFamily=Helvetica;fontSize=12;fontColor=default;" edge="1" parent="1" source="tLbLExzxjZkmGMl7VkWK-78" target="tLbLExzxjZkmGMl7VkWK-84">
          <mxGeometry relative="1" as="geometry" />
        </mxCell>
        <mxCell id="tLbLExzxjZkmGMl7VkWK-78" value="&amp;lt;&amp;lt;botton&amp;gt;&amp;gt;&lt;br&gt;식단기록 카메라" style="rounded=0;whiteSpace=wrap;html=1;fillColor=#dae8fc;strokeColor=#6c8ebf;" vertex="1" parent="1">
          <mxGeometry x="930" y="410" width="120" height="60" as="geometry" />
        </mxCell>
        <mxCell id="tLbLExzxjZkmGMl7VkWK-83" style="edgeStyle=orthogonalEdgeStyle;rounded=0;orthogonalLoop=1;jettySize=auto;html=1;entryX=1;entryY=0.5;entryDx=0;entryDy=0;fontFamily=Helvetica;fontSize=12;fontColor=default;exitX=0.415;exitY=1.011;exitDx=0;exitDy=0;exitPerimeter=0;" edge="1" parent="1" source="tLbLExzxjZkmGMl7VkWK-79" target="tLbLExzxjZkmGMl7VkWK-66">
          <mxGeometry relative="1" as="geometry">
            <Array as="points">
              <mxPoint x="830" y="530" />
              <mxPoint x="830" y="780" />
            </Array>
          </mxGeometry>
        </mxCell>
        <mxCell id="tLbLExzxjZkmGMl7VkWK-79" value="&amp;lt;&amp;lt;입력폼&amp;gt;&amp;gt;&lt;br&gt;몸무게변화기록창" style="rounded=0;whiteSpace=wrap;html=1;" vertex="1" parent="1">
          <mxGeometry x="772" y="490" width="120" height="40" as="geometry" />
        </mxCell>
        <mxCell id="tLbLExzxjZkmGMl7VkWK-95" style="edgeStyle=orthogonalEdgeStyle;rounded=0;orthogonalLoop=1;jettySize=auto;html=1;exitX=0.5;exitY=1;exitDx=0;exitDy=0;entryX=0.5;entryY=0;entryDx=0;entryDy=0;fontFamily=Helvetica;fontSize=12;fontColor=default;" edge="1" parent="1" source="tLbLExzxjZkmGMl7VkWK-84" target="tLbLExzxjZkmGMl7VkWK-94">
          <mxGeometry relative="1" as="geometry" />
        </mxCell>
        <mxCell id="tLbLExzxjZkmGMl7VkWK-84" value="카메라" style="rounded=0;whiteSpace=wrap;html=1;fillColor=#f8cecc;strokeColor=#b85450;" vertex="1" parent="1">
          <mxGeometry x="930" y="490" width="120" height="40" as="geometry" />
        </mxCell>
        <mxCell id="tLbLExzxjZkmGMl7VkWK-93" value="" style="edgeStyle=orthogonalEdgeStyle;rounded=0;orthogonalLoop=1;jettySize=auto;html=1;fontFamily=Helvetica;fontSize=12;fontColor=default;" edge="1" parent="1" source="tLbLExzxjZkmGMl7VkWK-90" target="tLbLExzxjZkmGMl7VkWK-92">
          <mxGeometry relative="1" as="geometry" />
        </mxCell>
        <mxCell id="tLbLExzxjZkmGMl7VkWK-90" value="식단인식AI" style="rounded=0;whiteSpace=wrap;html=1;fillColor=#e1d5e7;strokeColor=#9673a6;" vertex="1" parent="1">
          <mxGeometry x="930" y="578.5" width="120" height="40" as="geometry" />
        </mxCell>
        <mxCell id="tLbLExzxjZkmGMl7VkWK-92" value="식단메뉴 출력" style="rounded=0;whiteSpace=wrap;html=1;" vertex="1" parent="1">
          <mxGeometry x="930" y="638.5" width="120" height="40" as="geometry" />
        </mxCell>
        <mxCell id="tLbLExzxjZkmGMl7VkWK-105" value="" style="edgeStyle=orthogonalEdgeStyle;rounded=0;orthogonalLoop=1;jettySize=auto;html=1;fontFamily=Helvetica;fontSize=12;fontColor=default;" edge="1" parent="1" source="tLbLExzxjZkmGMl7VkWK-96" target="tLbLExzxjZkmGMl7VkWK-97">
          <mxGeometry relative="1" as="geometry" />
        </mxCell>
        <mxCell id="tLbLExzxjZkmGMl7VkWK-96" value="" style="rounded=0;whiteSpace=wrap;html=1;fillColor=#f5f5f5;dashed=1;fontColor=#333333;strokeColor=#666666;" vertex="1" parent="1">
          <mxGeometry x="1250" y="550" width="140" height="160" as="geometry" />
        </mxCell>
        <mxCell id="tLbLExzxjZkmGMl7VkWK-110" value="" style="edgeStyle=orthogonalEdgeStyle;rounded=0;orthogonalLoop=1;jettySize=auto;html=1;fontFamily=Helvetica;fontSize=12;fontColor=default;" edge="1" parent="1" source="tLbLExzxjZkmGMl7VkWK-97" target="tLbLExzxjZkmGMl7VkWK-109">
          <mxGeometry relative="1" as="geometry" />
        </mxCell>
        <mxCell id="tLbLExzxjZkmGMl7VkWK-97" value="식단인식결과" style="whiteSpace=wrap;html=1;rounded=0;" vertex="1" parent="1">
          <mxGeometry x="1100" y="616" width="120" height="30" as="geometry" />
        </mxCell>
        <mxCell id="tLbLExzxjZkmGMl7VkWK-98" value="메뉴 수정" style="whiteSpace=wrap;html=1;rounded=0;" vertex="1" parent="1">
          <mxGeometry x="1260" y="575" width="120" height="30" as="geometry" />
        </mxCell>
        <mxCell id="tLbLExzxjZkmGMl7VkWK-99" value="음식량 입력" style="whiteSpace=wrap;html=1;rounded=0;" vertex="1" parent="1">
          <mxGeometry x="1260" y="616" width="120" height="30" as="geometry" />
        </mxCell>
        <mxCell id="tLbLExzxjZkmGMl7VkWK-100" value="메뉴 입력" style="whiteSpace=wrap;html=1;rounded=0;" vertex="1" parent="1">
          <mxGeometry x="1260" y="656" width="120" height="30" as="geometry" />
        </mxCell>
        <mxCell id="tLbLExzxjZkmGMl7VkWK-111" style="edgeStyle=orthogonalEdgeStyle;rounded=0;orthogonalLoop=1;jettySize=auto;html=1;entryX=1;entryY=0.5;entryDx=0;entryDy=0;fontFamily=Helvetica;fontSize=12;fontColor=default;" edge="1" parent="1" source="tLbLExzxjZkmGMl7VkWK-109" target="tLbLExzxjZkmGMl7VkWK-75">
          <mxGeometry relative="1" as="geometry">
            <Array as="points">
              <mxPoint x="1160" y="255" />
            </Array>
          </mxGeometry>
        </mxCell>
        <mxCell id="tLbLExzxjZkmGMl7VkWK-109" value="인식결과 시각화" style="rounded=0;whiteSpace=wrap;html=1;fillColor=#dae8fc;strokeColor=#6c8ebf;" vertex="1" parent="1">
          <mxGeometry x="1100" y="490" width="120" height="40" as="geometry" />
        </mxCell>
        <mxCell id="tLbLExzxjZkmGMl7VkWK-112" value="" style="rounded=0;whiteSpace=wrap;html=1;strokeColor=default;align=center;verticalAlign=middle;fontFamily=Helvetica;fontSize=12;fontColor=default;fillColor=none;dashed=1;" vertex="1" parent="1">
          <mxGeometry x="900" y="385" width="530" height="355" as="geometry" />
        </mxCell>
      </root>
    </mxGraphModel>
  </diagram>
</mxfile>
